<svg viewBox="0 0 24 24" xmlns="http://www.w3.org/2000/svg">
<g fill="#979797">
<path d="m9.2227 5.6016h0.019532l0.011718 0.003907h0.019532l0.023437 0.007812h0.011719l0.007812 0.003907 0.011719 0.003906 0.007813 0.003906 0.023437 0.007812 0.007813 0.003907 0.011718 0.003906 0.007813 0.007813 0.011719 0.003906 0.007812 0.003906 0.007812 0.007812 0.011719 0.003907 8.8008 6 0.007813 0.007812 0.007813 0.003907 0.007812 0.007812 0.007812 0.003906 0.015626 0.015625 0.003906 0.007813 0.007812 0.003906 0.007813 0.007812 0.003906 0.007813 0.015625 0.015625 0.003906 0.007812 0.007813 0.007813 0.007812 0.015625 0.007813 0.007812 0.007812 0.015626 0.007813 0.007812 0.003906 0.007812 0.003906 0.011719 0.011719 0.023438v0.011719l0.007812 0.015624 0.003907 0.011719v0.007813l0.003906 0.011718v0.007813l0.003906 0.007813v0.011718l0.003907 0.007813v0.10156l-0.003907 0.007813v0.011718l-0.003906 0.007813v0.007813l-0.003906 0.011718v0.007813l-0.003907 0.011719-0.007812 0.015624v0.011719l-0.011719 0.023438-0.003906 0.011719-0.003906 0.007812-0.007813 0.007812-0.007812 0.015626-0.007813 0.007812-0.007812 0.015625-0.007813 0.007813-0.003906 0.007812-0.015625 0.015625-0.003906 0.007813-0.007813 0.007812-0.007812 0.003906-0.003906 0.007813-0.015626 0.015625-0.007812 0.003906-0.007812 0.007812-0.007813 0.003907-0.007813 0.007812-8.8008 6h-0.003906l-0.007813 0.003907-0.007812 0.007812-0.007812 0.003906h-0.003907l-0.003906 0.003906-0.007813 0.003907-0.003906 0.003906h-0.007812l-0.007813 0.007813h-0.007812l-0.003907 0.003906h-0.007812l-0.003906 0.003906h-0.007813l-0.003906 0.003906h-0.003906l-0.007813 0.003906h-0.003906l-0.007812 0.003907h-0.003907l-0.007812 0.003906h-0.011719l-0.003906 0.003906h-0.023438l-0.007812 0.003907h-0.09375l-0.003906-0.003907h-0.023438l-0.007812-0.003906h-0.007813l-0.003906-0.003906h-0.011719l-0.003906-0.003907h-0.007813l-0.003906-0.003906h-0.011719l-0.003906-0.003906h-0.003906l-0.003906-0.003906h-0.007813l-0.003906-0.003906h-0.003907l-0.003906-0.003907h-0.003906l-0.003906-0.003906h-0.003906l-0.003907-0.003906h-0.007812l-0.007813-0.007813-0.011718-0.003906-0.007813-0.007812-0.007813-0.003907-0.011718-0.007812-0.007813-0.007813-0.007812-0.003906-0.0625-0.0625-0.003907-0.007812-0.015624-0.015626-0.003907-0.011718-0.003906-0.007813-0.007813-0.011719-0.003906-0.007812-0.007812-0.007812-0.003906-0.011719-0.003907-0.007813-0.003906-0.011718-0.003906-0.007813-0.007813-0.023437v-0.007813l-0.007812-0.023437v-0.007813l-0.003906-0.011719v-0.011718l-0.003907-0.011719v-12.086l0.003907-0.011719v-0.011718l0.003906-0.011719v-0.007813l0.007812-0.023437v-0.007813l0.007813-0.023437 0.003906-0.007813 0.003906-0.011718 0.003907-0.007813 0.003906-0.011719 0.007812-0.007812 0.003906-0.007812 0.007813-0.011719 0.003906-0.007813 0.003907-0.011718 0.015624-0.015626 0.003907-0.007812 0.0625-0.0625 0.007812-0.003906 0.007813-0.007813 0.011718-0.007812 0.007813-0.003907 0.007813-0.007812 0.011718-0.003906 0.007813-0.007813 0.011719-0.003906 0.007812-0.003906 0.023438-0.007813 0.007812-0.003906 0.023438-0.007812 0.007812-0.003907h0.011719l0.011719-0.003906 0.007812-0.003906h0.023438l0.007812-0.003907zm8.0664 6.3984-7.6875-5.2422v10.484z"/>
<path d="m12.984 0.039062 0.48047 0.050781 0.48047 0.066406 0.46875 0.085938 0.46484 0.10547 0.46094 0.125 0.44922 0.14062 0.44141 0.15625 0.4375 0.17578 0.42578 0.19141 0.41797 0.20312 0.40625 0.22266 0.39844 0.23828 0.38672 0.25 0.37891 0.26562 0.36719 0.28125 0.35547 0.29297 0.34375 0.30859 0.33203 0.32031 0.32031 0.33203 0.30859 0.34375 0.29297 0.35547 0.28125 0.36719 0.26562 0.37891 0.25 0.38672 0.23828 0.39844 0.22266 0.40625 0.20312 0.41797 0.19141 0.42578 0.17578 0.4375 0.15625 0.44141 0.14062 0.44922 0.125 0.46094 0.10547 0.46484 0.085938 0.46875 0.066406 0.48047 0.050782 0.48047 0.027343 0.49219 0.011719 0.49219-0.011719 0.49219-0.027343 0.49219-0.050782 0.48047-0.066406 0.48047-0.085938 0.46875-0.10547 0.46484-0.125 0.46094-0.14062 0.44922-0.15625 0.44141-0.17578 0.4375-0.19141 0.42578-0.20312 0.41797-0.22266 0.40625-0.23828 0.39844-0.25 0.38672-0.26562 0.37891-0.28125 0.36719-0.29297 0.35547-0.30859 0.34375-0.32031 0.33203-0.33203 0.32031-0.34375 0.30859-0.35547 0.29297-0.36719 0.28125-0.37891 0.26562-0.38672 0.25-0.39844 0.23828-0.40625 0.22266-0.41797 0.20312-0.42578 0.19141-0.4375 0.17578-0.44141 0.15625-0.44922 0.14062-0.46094 0.125-0.46484 0.10547-0.46875 0.085938-0.48047 0.066406-0.48047 0.050782-0.49219 0.027343-0.49219 0.011719-0.49219-0.011719-0.49219-0.027343-0.48047-0.050782-0.48047-0.066406-0.46875-0.085938-0.46484-0.10547-0.46094-0.125-0.44922-0.14062-0.44141-0.15625-0.4375-0.17578-0.42578-0.19141-0.41797-0.20312-0.40625-0.22266-0.39844-0.23828-0.38672-0.25-0.37891-0.26562-0.36719-0.28125-0.35547-0.29297-0.34375-0.30859-0.33203-0.32031-0.32031-0.33203-0.30859-0.34375-0.29297-0.35547-0.28125-0.36719-0.26562-0.37891-0.25-0.38672-0.23828-0.39844-0.22266-0.40625-0.20312-0.41797-0.19141-0.42578-0.17578-0.4375-0.15625-0.44141-0.14062-0.44922-0.125-0.46094-0.10547-0.46484-0.085938-0.46875-0.066406-0.48047-0.050781-0.48047-0.027344-0.49219-0.011719-0.49219 0.011719-0.49219 0.027344-0.49219 0.050781-0.48047 0.066406-0.48047 0.085938-0.46875 0.10547-0.46484 0.125-0.46094 0.14062-0.44922 0.15625-0.44141 0.17578-0.4375 0.19141-0.42578 0.20312-0.41797 0.22266-0.40625 0.23828-0.39844 0.25-0.38672 0.26562-0.37891 0.28125-0.36719 0.29297-0.35547 0.30859-0.34375 0.32031-0.33203 0.33203-0.32031 0.34375-0.30859 0.35547-0.29297 0.36719-0.28125 0.37891-0.26562 0.38672-0.25 0.39844-0.23828 0.40625-0.22266 0.41797-0.20312 0.42578-0.19141 0.4375-0.17578 0.44141-0.15625 0.44922-0.14062 0.46094-0.125 0.46484-0.10547 0.46875-0.085938 0.48047-0.066406 0.48047-0.050781 0.49219-0.027344 0.49219-0.011719 0.49219 0.011719zm-1.9023 0.79688-0.44922 0.046874-0.44531 0.0625-0.44141 0.082032-0.43359 0.097656-0.42969 0.11719-0.41797 0.12891-0.41406 0.14844-0.40625 0.16016-0.39844 0.17969-0.39062 0.19141-0.37891 0.20703-0.37109 0.22266-0.36328 0.23438-0.35156 0.25-0.34375 0.26172-0.33203 0.27344-0.32031 0.28516-0.30859 0.30078-0.30078 0.30859-0.28516 0.32031-0.27344 0.33203-0.26172 0.34375-0.25 0.35156-0.23438 0.36328-0.22266 0.37109-0.20703 0.37891-0.19141 0.39062-0.17969 0.39844-0.16016 0.40625-0.14844 0.41406-0.12891 0.41797-0.11719 0.42969-0.097656 0.43359-0.082032 0.44141-0.0625 0.44531-0.046874 0.44922-0.027344 0.45703-0.007813 0.46094 0.007813 0.46094 0.027344 0.45703 0.046874 0.44922 0.0625 0.44531 0.082032 0.44141 0.097656 0.43359 0.11719 0.42969 0.12891 0.41797 0.14844 0.41406 0.16016 0.40625 0.17969 0.39844 0.19141 0.39062 0.20703 0.37891 0.22266 0.37109 0.23438 0.36328 0.25 0.35156 0.26172 0.34375 0.27344 0.33203 0.28516 0.32031 0.30078 0.30859 0.30859 0.30078 0.32031 0.28516 0.33203 0.27344 0.34375 0.26172 0.35156 0.25 0.36328 0.23438 0.37109 0.22266 0.37891 0.20703 0.39062 0.19141 0.39844 0.17969 0.40625 0.16016 0.41406 0.14844 0.41797 0.12891 0.42969 0.11719 0.43359 0.097656 0.44141 0.082032 0.44531 0.0625 0.44922 0.046874 0.45703 0.027344 0.46094 0.007813 0.46094-0.007813 0.45703-0.027344 0.44922-0.046874 0.44531-0.0625 0.44141-0.082032 0.43359-0.097656 0.42969-0.11719 0.41797-0.12891 0.41406-0.14844 0.40625-0.16016 0.39844-0.17969 0.39062-0.19141 0.37891-0.20703 0.37109-0.22266 0.36328-0.23438 0.35156-0.25 0.34375-0.26172 0.33203-0.27344 0.32031-0.28516 0.30859-0.30078 0.30078-0.30859 0.28516-0.32031 0.27344-0.33203 0.26172-0.34375 0.25-0.35156 0.23438-0.36328 0.22266-0.37109 0.20703-0.37891 0.19141-0.39062 0.17969-0.39844 0.16016-0.40625 0.14844-0.41406 0.12891-0.41797 0.11719-0.42969 0.097656-0.43359 0.082032-0.44141 0.0625-0.44531 0.046874-0.44922 0.027344-0.45703 0.007813-0.46094-0.007813-0.46094-0.027344-0.45703-0.046874-0.44922-0.0625-0.44531-0.082032-0.44141-0.097656-0.43359-0.11719-0.42969-0.12891-0.41797-0.14844-0.41406-0.16016-0.40625-0.17969-0.39844-0.19141-0.39062-0.20703-0.37891-0.22266-0.37109-0.23438-0.36328-0.25-0.35156-0.26172-0.34375-0.27344-0.33203-0.28516-0.32031-0.30078-0.30859-0.30859-0.30078-0.32031-0.28516-0.33203-0.27344-0.34375-0.26172-0.35156-0.25-0.36328-0.23438-0.37109-0.22266-0.37891-0.20703-0.39062-0.19141-0.39844-0.17969-0.40625-0.16016-0.41406-0.14844-0.41797-0.12891-0.42969-0.11719-0.43359-0.097656-0.44141-0.082032-0.44531-0.0625-0.44922-0.046874-0.45703-0.027344-0.46094-0.007813-0.46094 0.007813z"/>
</g>
</svg>